<svg width="24" height="25" viewBox="0 0 24 25" fill="none" xmlns="http://www.w3.org/2000/svg">
<path d="M12 2.3186C10.6868 2.3186 9.38641 2.57726 8.17315 3.07981C6.9599 3.58236 5.85751 4.31895 4.92892 5.24754C3.05356 7.1229 1.99999 9.66644 1.99999 12.3186C1.99125 14.6277 2.79078 16.8671 4.25999 18.6486L2.25999 20.6486C2.12123 20.7892 2.02723 20.9678 1.98986 21.1618C1.95249 21.3558 1.97341 21.5565 2.04999 21.7386C2.13305 21.9185 2.26769 22.0697 2.43683 22.173C2.60598 22.2763 2.80199 22.3269 2.99999 22.3186H12C14.6522 22.3186 17.1957 21.265 19.0711 19.3897C20.9464 17.5143 22 14.9708 22 12.3186C22 9.66644 20.9464 7.1229 19.0711 5.24754C17.1957 3.37217 14.6522 2.3186 12 2.3186ZM12 20.3186H5.40999L6.33999 19.3886C6.52624 19.2012 6.63078 18.9478 6.63078 18.6836C6.63078 18.4194 6.52624 18.166 6.33999 17.9786C5.03057 16.6706 4.21516 14.9491 4.03268 13.1074C3.8502 11.2657 4.31193 9.41761 5.33922 7.87813C6.3665 6.33864 7.89578 5.20296 9.6665 4.66458C11.4372 4.12619 13.3398 4.21841 15.0502 4.92552C16.7606 5.63263 18.1728 6.91088 19.0464 8.54249C19.92 10.1741 20.2009 12.0581 19.8411 13.8736C19.4814 15.6891 18.5033 17.3236 17.0735 18.4988C15.6438 19.674 13.8508 20.3171 12 20.3186Z" fill="white"/>
</svg>
