<svg width="24" height="25" viewBox="0 0 24 25" fill="none" xmlns="http://www.w3.org/2000/svg">
<path d="M17.9999 7.28154C17.8408 7.28154 17.6882 7.21833 17.5756 7.10581C17.4631 6.99328 17.3999 6.84067 17.3999 6.68154V3.98154C17.3999 3.74285 17.3051 3.51393 17.1363 3.34515C16.9675 3.17636 16.7386 3.08154 16.4999 3.08154C16.2612 3.08154 16.0323 3.17636 15.8635 3.34515C15.6947 3.51393 15.5999 3.74285 15.5999 3.98154V6.68154C15.5999 7.31806 15.8528 7.92851 16.3028 8.3786C16.7529 8.82869 17.3634 9.08154 17.9999 9.08154H20.6999C20.9386 9.08154 21.1675 8.98672 21.3363 8.81794C21.5051 8.64916 21.5999 8.42024 21.5999 8.18154C21.5999 7.94285 21.5051 7.71393 21.3363 7.54515C21.1675 7.37636 20.9386 7.28154 20.6999 7.28154H17.9999ZM6.5999 18.6815C6.5999 18.5224 6.53669 18.3698 6.42417 18.2573C6.31164 18.1448 6.15903 18.0815 5.9999 18.0815H3.2999C3.06121 18.0815 2.83229 17.9867 2.66351 17.8179C2.49472 17.6492 2.3999 17.4202 2.3999 17.1815C2.3999 16.9428 2.49472 16.7139 2.66351 16.5451C2.83229 16.3764 3.06121 16.2815 3.2999 16.2815H5.9999C6.63642 16.2815 7.24687 16.5344 7.69696 16.9845C8.14705 17.4346 8.3999 18.045 8.3999 18.6815V21.3815C8.3999 21.6202 8.30508 21.8492 8.1363 22.0179C7.96751 22.1867 7.7386 22.2815 7.4999 22.2815C7.26121 22.2815 7.03229 22.1867 6.86351 22.0179C6.69472 21.8492 6.5999 21.6202 6.5999 21.3815V18.6815ZM17.3999 18.6815C17.3999 18.5224 17.4631 18.3698 17.5756 18.2573C17.6882 18.1448 17.8408 18.0815 17.9999 18.0815H20.6999C20.9386 18.0815 21.1675 17.9867 21.3363 17.8179C21.5051 17.6492 21.5999 17.4202 21.5999 17.1815C21.5999 16.9428 21.5051 16.7139 21.3363 16.5451C21.1675 16.3764 20.9386 16.2815 20.6999 16.2815H17.9999C17.3634 16.2815 16.7529 16.5344 16.3028 16.9845C15.8528 17.4346 15.5999 18.045 15.5999 18.6815V21.3815C15.5999 21.6202 15.6947 21.8492 15.8635 22.0179C16.0323 22.1867 16.2612 22.2815 16.4999 22.2815C16.7386 22.2815 16.9675 22.1867 17.1363 22.0179C17.3051 21.8492 17.3999 21.6202 17.3999 21.3815V18.6815ZM6.5999 6.68154C6.5999 6.84067 6.53669 6.99328 6.42417 7.10581C6.31164 7.21833 6.15903 7.28154 5.9999 7.28154H3.2999C3.06121 7.28154 2.83229 7.37636 2.66351 7.54515C2.49472 7.71393 2.3999 7.94285 2.3999 8.18154C2.3999 8.42024 2.49472 8.64916 2.66351 8.81794C2.83229 8.98672 3.06121 9.08154 3.2999 9.08154H5.9999C6.63642 9.08154 7.24687 8.82869 7.69696 8.3786C8.14705 7.92851 8.3999 7.31806 8.3999 6.68154V3.98154C8.3999 3.74285 8.30508 3.51393 8.1363 3.34515C7.96751 3.17636 7.7386 3.08154 7.4999 3.08154C7.26121 3.08154 7.03229 3.17636 6.86351 3.34515C6.69472 3.51393 6.5999 3.74285 6.5999 3.98154V6.68154Z" fill="white"/>
</svg>
