<svg width="25" height="24" viewBox="0 0 25 24" fill="none" xmlns="http://www.w3.org/2000/svg">
<path d="M16.0352 6.09802C16.5304 6.09806 17.0053 6.29472 17.3555 6.6449C17.7056 6.9951 17.9023 7.47 17.9023 7.96521C17.9023 8.46044 17.7056 8.93534 17.3555 9.28552C17.0053 9.6357 16.5304 9.83236 16.0352 9.8324C15.5399 9.8324 15.065 9.63565 14.7148 9.28552C14.3647 8.93534 14.168 8.46044 14.168 7.96521C14.168 7.46993 14.3646 6.99511 14.7148 6.6449C15.0651 6.29468 15.5399 6.09802 16.0352 6.09802Z" fill="#DEDEDE" stroke="#DEDEDE" stroke-width="0.2"/>
<path d="M12.5508 1.90039C14.5884 1.90039 16.1953 1.89936 17.4512 2.06836H17.4502C18.7372 2.24126 19.7695 2.60563 20.582 3.41699H20.583C21.3956 4.22955 21.7587 5.26194 21.9316 6.5498C22.1006 7.80484 22.0996 9.4116 22.0996 11.4492V11.5273C22.0996 13.2126 22.1001 14.5976 22.0078 15.7266C21.9155 16.8625 21.726 17.8222 21.2939 18.625C21.1038 18.9791 20.8683 19.2977 20.583 19.583C19.7705 20.3956 18.7381 20.7587 17.4502 20.9316C16.1952 21.1006 14.5884 21.0996 12.5508 21.0996H12.4492C10.4116 21.0996 8.80475 21.1006 7.54883 20.9316V20.9307C6.26212 20.7577 5.23037 20.3943 4.41797 19.583H4.41699C3.69717 18.8632 3.32879 17.969 3.13477 16.873C2.94303 15.8002 2.90844 14.4689 2.90137 12.8281C2.8996 12.4099 2.90039 11.9675 2.90039 11.501V11.4492C2.90039 9.41159 2.89936 7.80475 3.06836 6.54883C3.24129 5.26206 3.60572 4.23039 4.41699 3.41797V3.41699C5.22955 2.60444 6.26194 2.24131 7.5498 2.06836C8.80484 1.89936 10.4116 1.90039 12.4492 1.90039H12.5508ZM12.5 3.42578C10.3959 3.42578 8.89355 3.42744 7.75293 3.58008C6.63472 3.73057 5.97731 4.01488 5.49609 4.49609C5.01402 4.97817 4.73058 5.63479 4.58008 6.75391C4.42746 7.89452 4.42578 9.39592 4.42578 11.5V12.0254L5.14453 11.3955C5.55173 11.0393 6.07942 10.8511 6.62012 10.8691C7.16073 10.8873 7.67421 11.1106 8.05664 11.4932L11.8477 15.2842C12.1252 15.5617 12.4918 15.7327 12.8828 15.7666C13.2738 15.8005 13.6642 15.6944 13.9854 15.4688L14.249 15.2832C14.7585 14.9253 15.3745 14.7506 15.9961 14.7881C16.6178 14.8256 17.208 15.0736 17.6709 15.4902L20.0684 17.6475C20.2803 17.1503 20.4143 16.5026 20.4873 15.6035C20.5735 14.5436 20.5742 13.2211 20.5742 11.5C20.5742 9.39592 20.5725 7.89452 20.4199 6.75391C20.2695 5.63523 19.9849 4.97817 19.5039 4.49609L19.3145 4.32422C18.8506 3.94537 18.2254 3.71178 17.2461 3.58008C16.1055 3.42745 14.6041 3.42578 12.5 3.42578Z" fill="#DEDEDE" stroke="#DEDEDE" stroke-width="0.2"/>
</svg>
