<svg width="22" height="22" viewBox="0 0 22 22" fill="none" xmlns="http://www.w3.org/2000/svg">
<path d="M10.7186 2.66852C11.0073 1.95352 11.8117 1.18352 12.8443 1.4709C13.6556 1.6964 14.1822 2.1859 14.4847 2.8404C14.7652 3.44952 14.8339 4.16727 14.8477 4.85065C14.8614 5.58627 14.7074 6.46765 14.5273 7.2404C14.4469 7.58186 14.3575 7.92115 14.2592 8.2579H16.1636C16.5908 8.25793 17.0122 8.35751 17.3943 8.54876C17.7764 8.74001 18.1087 9.01766 18.3647 9.35969C18.6208 9.70171 18.7937 10.0987 18.8696 10.5192C18.9456 10.9396 18.9225 11.372 18.8022 11.782L16.9267 18.1703C16.798 18.6087 16.5833 19.017 16.2949 19.3714C16.0066 19.7258 15.6506 20.0192 15.2475 20.2344C14.8445 20.4496 14.4027 20.5823 13.9478 20.6248C13.4929 20.6672 13.0341 20.6186 12.5982 20.4816L4.64382 18.1703C4.24541 18.0451 3.88073 17.8309 3.57745 17.5438C3.27417 17.2567 3.04026 16.9043 2.89345 16.5134L2.75012 15.1249C2.73106 14.2659 2.53405 13.3369 2.74932 12.7268C2.9646 12.1167 3.38809 11.602 3.94532 11.2733L6.51932 9.75527C6.7787 9.55013 7.01936 9.32236 7.23845 9.07465C7.71145 8.53977 8.36182 7.65015 9.01495 6.26277C9.29682 5.66327 9.53332 5.19165 9.74782 4.76402C10.0957 4.0724 10.3872 3.49352 10.7186 2.66852ZM7.25907 10.9144C7.25137 10.9191 7.24358 10.9237 7.2357 10.9281L4.64383 12.4571C4.36521 12.6215 4.15346 12.8789 4.04582 13.1839C3.93819 13.489 4.05532 14.2214 4.04582 14.7054C4.03632 15.1894 4.18045 16.0294 4.18045 16.0294C4.25384 16.2251 4.37086 16.4014 4.52263 16.5451C4.6744 16.6888 4.85692 16.796 5.05632 16.8585L13.0079 19.1699C13.2695 19.2523 13.5449 19.2817 13.818 19.2564C14.0911 19.2312 14.3564 19.1516 14.5984 19.0226C14.8403 18.8935 15.0542 18.7175 15.2273 18.5048C15.4004 18.2921 15.5294 18.047 15.6067 17.7839L17.4808 11.3956C17.5411 11.1906 17.5527 10.9742 17.5148 10.7638C17.4769 10.5535 17.3904 10.3548 17.2622 10.1837C17.1341 10.0126 16.9678 9.87373 16.7766 9.77811C16.5855 9.6825 16.3746 9.63277 16.1608 9.6329H13.3201C13.2101 9.63284 13.1017 9.60638 13.0041 9.55576C12.9064 9.50513 12.8223 9.43182 12.7589 9.34197C12.6954 9.25212 12.6545 9.14836 12.6394 9.03939C12.6244 8.93043 12.6357 8.81945 12.6725 8.71577C12.8099 8.32802 13.0189 7.65565 13.1894 6.92552C13.3627 6.18577 13.4851 5.43777 13.4741 4.87677C13.4603 4.23327 13.3929 3.75477 13.2362 3.41652C13.1014 3.1209 12.8911 2.91052 12.4772 2.79502C12.4181 2.77852 12.3479 2.78402 12.2572 2.84315C12.1387 2.92774 12.0479 3.0454 11.9959 3.1814C11.6792 3.95336 11.3282 4.71082 10.9441 5.45152C10.731 5.8764 10.5068 6.32327 10.2607 6.84715C9.55395 8.3514 8.8307 9.3524 8.26695 9.98627C7.98645 10.3025 7.7472 10.5266 7.5712 10.6765C7.48181 10.7525 7.38914 10.8245 7.29345 10.8924L7.27145 10.9061L7.26457 10.9116L7.25907 10.9144Z" fill="white"/>
</svg>
