<svg width="85" height="85" viewBox="0 0 85 85" fill="none" xmlns="http://www.w3.org/2000/svg">
<path d="M42.5 7.5C23.18 7.5 7.5 23.18 7.5 42.5C7.5 61.82 23.18 77.5 42.5 77.5C61.82 77.5 77.5 61.82 77.5 42.5C77.5 23.18 61.82 7.5 42.5 7.5ZM35.5 56.5C33.575 56.5 32 54.925 32 53V32C32 30.075 33.575 28.5 35.5 28.5C37.425 28.5 39 30.075 39 32V53C39 54.925 37.425 56.5 35.5 56.5ZM49.5 56.5C47.575 56.5 46 54.925 46 53V32C46 30.075 47.575 28.5 49.5 28.5C51.425 28.5 53 30.075 53 32V53C53 54.925 51.425 56.5 49.5 56.5Z" fill="white"/>
</svg>
