<svg width="22" height="22" viewBox="0 0 22 22" fill="none" xmlns="http://www.w3.org/2000/svg">
<path d="M10.8858 18.2326C9.89026 18.2326 9.08322 17.4255 9.08322 16.43C9.08322 15.4345 9.89026 14.6274 10.8858 14.6274C11.8813 14.6274 12.6884 15.4345 12.6884 16.43C12.6884 17.4255 11.8813 18.2326 10.8858 18.2326ZM10.8858 12.8249C9.89026 12.8249 9.08322 12.0178 9.08322 11.0223C9.08322 10.0268 9.89026 9.21972 10.8858 9.21972C11.8813 9.21972 12.6884 10.0268 12.6884 11.0223C12.6884 11.5004 12.4984 11.9588 12.1604 12.2969C11.8224 12.6349 11.3639 12.8249 10.8858 12.8249ZM10.8858 7.41715C9.89026 7.41715 9.08322 6.61011 9.08322 5.61458C9.08322 4.61905 9.89026 3.81201 10.8858 3.81201C11.8813 3.81201 12.6884 4.61905 12.6884 5.61458C12.6884 6.09265 12.4984 6.55114 12.1604 6.88919C11.8224 7.22724 11.3639 7.41715 10.8858 7.41715Z" fill="white"/>
</svg>
