<svg width="24" height="25" viewBox="0 0 24 25" fill="none" xmlns="http://www.w3.org/2000/svg">
<path d="M20 4.3186C20.5304 4.3186 21.0391 4.52932 21.4142 4.90439C21.7893 5.27946 22 5.78817 22 6.3186V18.3186C22 18.849 21.7893 19.3577 21.4142 19.7328C21.0391 20.1079 20.5304 20.3186 20 20.3186H4C3.46957 20.3186 2.96086 20.1079 2.58579 19.7328C2.21071 19.3577 2 18.849 2 18.3186V6.3186C2 5.78817 2.21071 5.27946 2.58579 4.90439C2.96086 4.52932 3.46957 4.3186 4 4.3186H20ZM20 18.3186V6.3186H4V18.3186H20ZM6 10.3186H8V12.3186H6V10.3186ZM6 14.3186H14V16.3186H6V14.3186ZM16 14.3186H18V16.3186H16V14.3186ZM10 10.3186H18V12.3186H10V10.3186Z" fill="white"/>
</svg>
